<svg width="3656" height="3656" viewBox="0 0 3656 3656" fill="none" xmlns="http://www.w3.org/2000/svg">
<path d="M1650 2314L1133 2462L747 3302L550.5 3135.5L551.5 3120.5L540 3096.5L1072 1041L2299.5 684L2140 1136L3135.5 931L2531.5 1789.5L2820 2340.5L1543.5 2675L1650 2314Z" fill="white"/>
<path fill-rule="evenodd" clip-rule="evenodd" d="M1828 3656C2837.58 3656 3656 2837.58 3656 1828C3656 818.424 2837.58 0 1828 0C818.424 0 0 818.424 0 1828C0 2340.45 210.865 2803.65 550.558 3135.57L1202.75 1100.62L2165.97 843.466L2026.38 1272.55L3062.34 989.677L2443.7 1742.04L2750.82 2322.47L1588.48 2642.81L1731.02 2204.91L1038.17 2387.13L746.778 3302.11C1049.58 3524.58 1423.44 3656 1828 3656Z" fill="black"/>
</svg>
